PathFileType	4	(X/Y/Z)	Patient4_TMGait_0pt4_03_right_11.trc.trc
DataRate	CameraRate	NumFrames	NumMarkers	Units	OrigDataRate	OrigDataStartFrame	OrigNumFrames
75.268817204301	75.268817204301	4	33	mm	75.268817204301	89	       141
Frame#	Time	Sacral			L.Shoulder			Chest			R.Shoulder			Neck			R.ASIS			L.ASIS			R.Thigh.Superior			R.Thigh.Lateral			R.Thigh.Inferior			R.Patella			L.Thigh.Superior			L.Thigh.Lateral			L.Thigh.Inferior			L.Patella			L.Shank.Superior			L.Shank.Lateral			L.Shank.Inferior			R.Shank.Superior			R.Shank.Lateral			R.Shank.Inferior			R.Heel			R.Midfoot.Superior			R.Midfoot.Lateral			R.Toe			L.Heel			L.Midfoot.Lateral			L.Midfoot.Superior			L.Toe			L.Elbow			L.Wrist			R.Elbow			R.Wrist			
		X1	Y1	Z1	X2	Y2	Z2	X3	Y3	Z3	X4	Y4	Z4	X5	Y5	Z5	X6	Y6	Z6	X7	Y7	Z7	X8	Y8	Z8	X9	Y9	Z9	X10	Y10	Z10	X11	Y11	Z11	X12	Y12	Z12	X13	Y13	Z13	X14	Y14	Z14	X15	Y15	Z15	X16	Y16	Z16	X17	Y17	Z17	X18	Y18	Z18	X19	Y19	Z19	X20	Y20	Z20	X21	Y21	Z21	X22	Y22	Z22	X23	Y23	Z23	X24	Y24	Z24	X25	Y25	Z25	X26	Y26	Z26	X27	Y27	Z27	X28	Y28	Z28	X29	Y29	Z29	X30	Y30	Z30	X31	Y31	Z31	X32	Y32	Z32	X33	Y33	Z33	

89	14.579142857143	814.339873884866	1008.600931729195	459.108179629753	973.837876028948	1433.787140993426	267.568652910506	1090.250287153033	1369.044486665946	420.711238254216	1019.831337929213	1440.817987229333	601.269744754611	965.422914213704	1496.470476860674	426.537851966458	1045.757544520554	942.738111921429	567.244480333874	1022.857268984284	960.558981151190	293.800430522945	1059.785028278073	731.942517085803	553.869052378700	964.870805418514	634.083148852584	622.054752276012	1038.172192568436	565.974370210736	551.407891205112	1022.512369811713	465.123206296863	572.080324695215	1087.172423669455	761.091243732929	320.882550880709	1010.065556848635	636.670615451195	259.924719464753	1106.545828672229	567.754701384443	316.801349667703	1114.556609717730	497.120652746691	324.208432800655	1088.819747626814	422.995725789374	316.869009687263	1001.120509638395	307.342066699854	266.805508905946	1056.884090595105	195.483577281128	332.235335790528	953.912371673743	395.215146791793	578.643718224755	840.755716115791	338.815409630585	640.075918228238	842.333830756705	228.565693151358	588.645595488958	652.453523701639	124.203447977993	560.949225995519	829.014075331672	109.881108400063	602.370777420956	723.764329972089	79.280818192957	632.872023343646	919.003831268454	34.593585700434	624.744790450138	934.029673429694	38.923011524102	373.866014998140	1006.099067273639	35.780914249537	291.672561922129	1090.489051370239	96.911332752675	317.845719876330	1218.406547027787	42.088257700808	285.900453555577	908.207529711073	1086.370552545793	153.604064118702	976.378122626299	831.738143850244	155.143371547337	1067.717787395858	1102.213667176422	734.338975108374	1305.642968208745	1017.017345224926	698.078701284217	
90	14.592428571429	813.689618261433	1009.200152799655	455.076086846657	975.708563852913	1434.246067312916	263.640811413950	1090.677725524918	1369.456595745714	417.846964817127	1018.886514164042	1441.582378578444	597.700545451655	965.857912882719	1497.093240594360	422.469237027530	1044.725941532015	943.545358256530	564.366854153100	1023.209635862013	960.976826904121	290.996678677032	1064.235137539170	734.021092033005	551.641160314386	972.301547825556	634.262826579307	620.179039401252	1047.695710773275	567.310886725829	549.880392243325	1033.360590056757	465.017130409589	571.640544992878	1085.847134060790	760.336178525792	317.674826088780	1007.094168208622	636.843506663651	257.399568683164	1102.528840239076	567.074848007294	314.519763468081	1109.756333251300	496.659989618084	322.153356779372	1084.043273870553	422.648202333275	314.995266963125	996.234933591487	306.917841979666	265.255933642809	1051.754016965339	195.275686286155	331.357970457173	962.731804706641	395.911290925612	578.044793590768	847.778468402664	343.284583716283	639.484493295419	846.181088057015	232.848164353226	588.802198641929	653.372400946496	136.379951738162	561.345180150846	828.777486682051	113.303566134876	602.804890323339	722.245749778072	87.738245848689	633.095301956650	914.251718252064	33.719430982316	624.902169441982	928.644383551551	38.907667315134	373.722748091041	1000.701128702092	35.641669592620	291.494683703265	1085.129913739641	96.756374151799	317.622055936332	1213.090590927357	41.837834627073	285.843921656179	916.311276457602	1086.411680221760	146.960309975723	991.073262512400	833.631794536722	146.661494531592	1060.678473502576	1102.114368273838	731.010829296733	1295.269400172172	1005.348984824347	698.842680630202	
91	14.605714285714	812.863424882358	1009.693866797366	451.217766811794	977.585695067871	1434.575564756069	259.848715016712	1091.004757833860	1369.729538177233	415.170541876604	1017.761731191506	1442.237974405312	594.267151476906	966.229462370283	1497.638272238663	418.471549841392	1043.502123130959	944.287781308476	561.706929676598	1023.367690604260	961.312942016703	288.402519988493	1068.877520299785	736.385740495908	549.435866150728	980.279436869978	634.610422886654	618.381936732567	1057.737344990479	569.024152228903	548.308509121992	1044.863875344199	465.339539964894	570.992497700423	1084.318900102204	759.608788989934	314.674234206894	1004.053960503556	637.047363616100	254.946980018331	1098.458657033507	566.445858577276	312.282322610681	1104.916935505167	496.222131257304	320.079449208787	1079.228594567991	422.325076250146	313.104826275656	991.273771148609	306.526800623374	263.718847490074	1046.615136083361	195.099625020603	330.449971272333	972.302019235490	396.919870082811	577.311689555855	855.689719972216	348.134494028537	638.839970725048	850.764342094847	237.665149368435	588.846319285179	655.321335128810	149.494574264355	561.657026345722	829.172449880112	117.455763380906	603.107334963829	721.537839521855	97.160254206615	633.259315974650	909.897970356796	32.835938568295	625.047280631004	923.279989945561	38.899683141872	373.564718116474	995.321140623350	35.513324220387	291.300252889400	1079.779183565708	96.630211796267	317.360464271411	1207.782152429776	41.645654228232	285.770051972767	924.659769660669	1086.551987091689	140.255435978834	1006.261138516562	835.893256410881	138.538692862788	1053.276375915895	1101.893404028149	727.644792664095	1283.779574228139	993.441042027591	699.706427697700	
92	14.619000000000	811.894370859466	1010.085342852233	447.554801692826	979.424490343569	1434.772514248426	256.222905435548	1091.212348136240	1369.878000548828	412.696354252295	1016.454737638937	1442.791128157212	590.993272487119	966.532638999091	1498.110627773095	414.575840068975	1042.119259132631	944.975946497524	559.285045433441	1023.343888018195	961.577462250669	286.027014446925	1073.566430043899	739.046587332448	547.223056865422	988.607212492937	635.203764613266	616.645876449209	1068.044778239636	571.166358107015	546.674938548172	1056.794971296525	466.162877164925	570.116850671901	1082.633566205555	758.913262275946	311.876604847745	1000.961093276768	637.250432343792	252.613236120546	1094.387289640826	565.850235689708	310.120426978877	1100.101203845514	495.800605170268	318.063595191052	1074.433435350853	422.017711857404	311.270217832228	986.297404599857	306.172879805966	262.239650319523	1041.495716547577	194.950391886446	329.562011193188	982.432170070971	398.294818341123	576.432227581158	864.325595577262	353.310366546619	638.113435853757	856.033449413381	242.949541284739	588.747461176862	658.316689337662	163.185512230451	561.860982549827	830.283806824339	122.276298182565	603.225047845963	721.766898526591	107.302471814444	633.335602585241	906.170708562272	32.068587228609	625.118179884013	917.934214525380	38.896525418072	373.399673507483	989.957607326438	35.399606893598	291.098361321382	1074.436918402127	96.532565427986	317.078882080392	1202.478786180206	41.505215621360	285.681201168313	933.212743650489	1086.787131535268	133.562751794375	1021.873190611964	838.528000726187	130.809907604996	1045.568152640714	1101.576209800808	724.293543088587	1271.153475914639	981.327508156079	700.703490533791	
